<svg width="120" height="120" viewBox="0 0 120 120" fill="none" xmlns="http://www.w3.org/2000/svg">
<rect width="120" height="120" rx="8" fill="#F5F5F5"/>
<circle cx="60" cy="60" r="50" fill="url(#paint0_linear_2_1482)"/>
<path fill-rule="evenodd" clip-rule="evenodd" d="M43.9005 59.1038C42.652 56.059 41.6429 53.0871 40.8855 50.2666C39.4202 50.5852 38.0442 50.9495 36.7711 51.3548C33.7281 52.3233 31.354 53.4995 29.7515 54.7775C28.1476 56.0566 27.4572 57.3152 27.3998 58.4772C27.3509 59.4676 27.7491 60.5628 28.7756 61.7516C29.8094 62.9489 31.4149 64.1574 33.5678 65.299C34.3243 65.7001 34.6086 66.6317 34.2029 67.3796C33.7972 68.1276 32.8551 68.4088 32.0986 68.0076C29.7407 66.7574 27.7797 65.3319 26.4114 63.7473C25.0359 62.1544 24.1965 60.32 24.2949 58.3274C24.4109 55.9774 25.7971 53.9824 27.7999 52.3851C29.8043 50.7867 32.5672 49.4638 35.8185 48.429C37.1728 47.998 38.626 47.6125 40.1644 47.2763C39.8545 45.8187 39.6191 44.4133 39.4601 43.0726C39.0623 39.7184 39.1323 36.6839 39.7709 34.2174C40.409 31.7527 41.6691 29.6775 43.7832 28.5975C45.6486 27.6444 47.7757 27.6763 49.8953 28.3235C52.0063 28.9681 54.2257 30.2525 56.4476 31.9955C57.1201 32.5231 57.2327 33.4897 56.6992 34.1546C56.1656 34.8195 55.188 34.9309 54.5155 34.4033C52.473 32.801 50.5956 31.7542 48.9781 31.2602C47.3692 30.769 46.136 30.8551 45.2101 31.3281C44.1647 31.8622 43.2934 33.0058 42.7824 34.9795C42.2719 36.9515 42.1752 39.5754 42.5475 42.7146C42.6971 43.9754 42.9206 45.3057 43.217 46.693C46.1662 46.2055 49.3622 45.8852 52.7257 45.7544C56.6266 40.8689 60.722 36.8532 64.584 34.0418C67.3345 32.0396 70.0357 30.5974 72.5193 29.9249C75.0011 29.2528 77.4484 29.308 79.4441 30.5894C81.2203 31.7299 82.2475 33.5944 82.723 35.7593C83.1968 37.9159 83.1549 40.4886 82.7055 43.2934C82.5712 44.1317 81.775 44.7036 80.9272 44.5708C80.0793 44.438 79.5009 43.6507 79.6352 42.8124C80.0489 40.2306 80.0494 38.0691 79.6853 36.4116C79.323 34.7624 78.6323 33.733 77.7511 33.1671C76.7642 32.5335 75.3279 32.3511 73.3405 32.8893C71.3548 33.427 69.0013 34.643 66.427 36.517C63.3405 38.7638 60.0357 41.884 56.7902 45.6897C58.0779 45.6981 59.3842 45.7336 60.705 45.7973C70.2739 46.2591 78.9351 48.1222 85.214 50.8128C88.3479 52.1558 90.9674 53.7384 92.8048 55.5223C94.6408 57.3048 95.8239 59.4238 95.7079 61.7738C95.6107 63.741 94.6189 65.4674 93.1251 66.909C91.6397 68.3426 89.5923 69.5647 87.1748 70.5789C86.3845 70.9104 85.4721 70.5458 85.1368 69.7645C84.8015 68.9831 85.1703 68.081 85.9605 67.7495C88.1628 66.8256 89.8366 65.7877 90.9537 64.7095C92.0626 63.6394 92.5547 62.6022 92.603 61.624C92.6603 60.4619 92.0971 59.1428 90.6268 57.7154C89.1578 56.2892 86.9109 54.8899 83.9778 53.633C78.1226 51.1239 69.8473 49.3158 60.5535 48.8673C58.4112 48.7639 56.3157 48.7376 54.2848 48.782C52.9876 50.4657 51.712 52.2543 50.4766 54.1352C49.3454 55.8575 48.2994 57.5787 47.3418 59.282C48.1721 61.2092 49.1031 63.1688 50.1329 65.1394C54.4043 73.3129 59.5037 80.0058 64.2433 84.2307C66.6175 86.3472 68.8379 87.7873 70.7601 88.5165C72.6839 89.2464 74.1314 89.2053 75.1768 88.6712C76.1839 88.1567 77.028 87.0789 77.5465 85.2347C78.0657 83.3884 78.2071 80.9299 77.9145 77.9742C77.3304 72.0731 75.0506 64.5215 71.179 56.6801C70.8024 55.9174 71.1224 54.9973 71.8938 54.6249C72.6652 54.2526 73.5959 54.569 73.9725 55.3317C77.9597 63.4071 80.379 71.3168 81.0083 77.6749C81.3225 80.8487 81.1992 83.7193 80.5415 86.058C79.8833 88.399 78.6385 90.3624 76.6038 91.4018C74.4897 92.4819 72.0489 92.2975 69.6465 91.3861C67.2423 90.474 64.6985 88.7749 62.1617 86.5135C57.0792 81.9828 51.7689 74.9657 47.3712 66.5503C46.7082 65.2818 46.0835 64.0149 45.4978 62.755C43.1646 67.4243 41.538 71.8642 40.6858 75.7085C40.0014 78.796 39.8352 81.4164 40.146 83.4286C40.4571 85.4427 41.2098 86.6659 42.1966 87.2995C43.1249 87.8956 44.4464 88.092 46.2562 87.6663C48.0705 87.2395 50.2249 86.2158 52.6016 84.5974C53.3085 84.116 54.2763 84.2923 54.7633 84.9914C55.2502 85.6903 55.0718 86.6473 54.3648 87.1287C51.804 88.8725 49.2931 90.1112 46.9758 90.6564C44.654 91.2026 42.3777 91.0806 40.5036 89.8773C38.5079 88.5959 37.4615 86.4077 37.073 83.8927C36.6842 81.3758 36.918 78.3493 37.6493 75.0505C38.7053 70.2866 40.8379 64.7815 43.9005 59.1038ZM45.8751 55.6364C45.1107 53.5899 44.4673 51.5982 43.9471 49.689C45.94 49.3668 48.0608 49.1224 50.2825 48.9656C49.4635 50.0948 48.6577 51.2611 47.8695 52.4612C47.1746 53.5192 46.5095 54.5788 45.8751 55.6364Z" fill="white"/>
<path d="M60.1445 64.3485C62.5971 64.3485 64.5853 62.3827 64.5853 59.9577C64.5853 57.5327 62.5971 55.5668 60.1445 55.5668C57.6919 55.5668 55.7036 57.5327 55.7036 59.9577C55.7036 62.3827 57.6919 64.3485 60.1445 64.3485Z" fill="white"/>
<defs>
<linearGradient id="paint0_linear_2_1482" x1="60" y1="10" x2="60" y2="110" gradientUnits="userSpaceOnUse">
<stop stop-color="#B2E299"/>
<stop offset="1" stop-color="#03A171"/>
</linearGradient>
</defs>
</svg>
