<svg width="100" height="100" viewBox="0 0 100 100" fill="none" xmlns="http://www.w3.org/2000/svg">
<path fill-rule="evenodd" clip-rule="evenodd" d="M50 100C77.6142 100 100 77.6142 100 50C100 22.3858 77.6142 0 50 0C22.3858 0 0 22.3858 0 50C0 77.6142 22.3858 100 50 100Z" fill="#1FB6FF"/>
<path fill-rule="evenodd" clip-rule="evenodd" d="M45.0167 39.0042C48.678 39.044 42.2322 58.0495 42.9242 66.3118C43.6221 74.6476 52.8456 72.2476 52.2602 67.4489C51.2642 59.2909 56.6984 33.728 62.2098 33.728C66.0767 33.728 57.9269 51.3506 59.5305 62.6353C60.5915 70.1015 70.2215 67.5115 69.2429 63.0846C66.0057 48.4339 76.0356 34.3537 74.9116 24.3778C74.42 20.0129 71.7949 17.8783 69.1692 17.8574C59.9759 17.7866 52.8744 36.6399 52.8744 36.6399C52.8744 36.6399 53.6139 25.9244 46.4689 25.531C35.5293 24.9281 24.6996 52.3064 25.0064 76.7526C25.1042 84.5515 34.8106 83.2231 34.3002 77.0052C33.351 65.4415 39.7981 38.9483 45.0167 39.0042Z" fill="white"/>
</svg>
