<svg width="20" height="19" viewBox="0 0 20 19" fill="none" xmlns="http://www.w3.org/2000/svg">
<path d="M5.03239 11.3049L3.66571 17.2229C3.62339 17.4021 3.6361 17.5899 3.70217 17.7618C3.76824 17.9336 3.8846 18.0816 4.03606 18.1863C4.18752 18.291 4.36704 18.3476 4.55117 18.3487C4.73529 18.3498 4.91547 18.2953 5.06816 18.1924L10.0625 14.8629L15.0568 18.1924C15.2131 18.2962 15.3973 18.3496 15.5848 18.3454C15.7723 18.3413 15.9541 18.2799 16.1056 18.1694C16.2571 18.0589 16.3712 17.9047 16.4325 17.7274C16.4937 17.5502 16.4993 17.3584 16.4483 17.178L14.7707 11.3077L18.9312 7.56351C19.0645 7.44353 19.1597 7.28712 19.205 7.11362C19.2503 6.94012 19.2437 6.75715 19.1861 6.58734C19.1286 6.41752 19.0225 6.26831 18.881 6.15815C18.7395 6.04799 18.5688 5.98172 18.3901 5.96752L13.1609 5.5511L10.8981 0.542085C10.826 0.380794 10.7087 0.243833 10.5604 0.147729C10.4121 0.0516259 10.2392 0.000488281 10.0625 0.000488281C9.88581 0.000488281 9.71289 0.0516259 9.56462 0.147729C9.41635 0.243833 9.29906 0.380794 9.2269 0.542085L6.96409 5.5511L1.73493 5.96661C1.55924 5.98053 1.39128 6.04477 1.25114 6.15164C1.11101 6.25852 1.00463 6.40351 0.94473 6.56926C0.884835 6.73501 0.87396 6.91451 0.913408 7.08628C0.952856 7.25805 1.04095 7.41482 1.16717 7.53783L5.03239 11.3049ZM7.64926 7.33696C7.81298 7.32406 7.97022 7.26735 8.10449 7.17278C8.23875 7.07821 8.34511 6.94927 8.4124 6.79946L10.0625 3.14795L11.7126 6.79946C11.7799 6.94927 11.8863 7.07821 12.0205 7.17278C12.1548 7.26735 12.312 7.32406 12.4757 7.33696L16.119 7.62588L13.1187 10.3262C12.8582 10.561 12.7546 10.9224 12.85 11.26L13.9993 15.282L10.5725 12.9972C10.4221 12.8963 10.245 12.8423 10.0639 12.8423C9.88273 12.8423 9.70568 12.8963 9.55527 12.9972L5.97439 15.3848L6.93749 11.215C6.9728 11.0617 6.96806 10.9018 6.92372 10.7508C6.87939 10.5998 6.79695 10.4627 6.68433 10.3528L3.89777 7.63597L7.64926 7.33696Z" fill="#FFC942"/>
</svg>
