<svg width="24" height="20" viewBox="0 0 24 20" fill="none" xmlns="http://www.w3.org/2000/svg">
<path d="M16.6369 2.3357C15.7276 2.33556 14.8545 2.68364 14.2056 3.30506C13.5567 3.92648 13.1838 4.77155 13.1672 5.65844L13.1337 7.49662C13.1317 7.59532 13.1084 7.69249 13.0652 7.78177C13.022 7.87106 12.96 7.95043 12.8832 8.01468C12.8063 8.07893 12.7165 8.12661 12.6194 8.15459C12.5224 8.18257 12.4203 8.19022 12.3201 8.17704L10.4524 7.92962C7.99482 7.60283 5.64016 6.49875 3.38123 4.6629C2.66574 8.52601 4.06321 11.2022 7.42888 13.2668L9.51912 14.5482C9.61843 14.6091 9.70094 14.6928 9.75943 14.792C9.81791 14.8912 9.85059 15.0028 9.8546 15.1172C9.85862 15.2315 9.83385 15.3451 9.78245 15.448C9.73106 15.5508 9.65461 15.6398 9.5598 15.7072L7.65502 17.0645C8.78808 17.1334 9.8637 17.0844 10.7563 16.9116C16.4012 15.8122 20.1545 11.669 20.1545 4.83447C20.1545 4.27659 18.9437 2.3357 16.6369 2.3357ZM10.7742 5.61526C10.7951 4.49023 11.1558 3.39621 11.811 2.47018C12.4663 1.54414 13.3871 0.827248 14.458 0.409248C15.529 -0.00875252 16.7026 -0.10928 17.8319 0.120251C18.9612 0.349782 19.9959 0.899171 20.8066 1.69963C21.6573 1.6938 22.3812 1.90388 24 0.946853C23.5992 2.8609 23.4018 3.69187 22.5475 4.83447C22.5475 13.7535 16.9277 18.0904 11.2253 19.2003C7.31522 19.9613 1.62959 18.7113 0 17.0517C0.83035 16.9887 4.2044 16.635 6.15464 15.2427C4.50471 14.1818 -2.06271 10.412 2.25295 0.276937C4.27858 2.5843 6.33292 4.15521 8.41478 4.98852C9.80029 5.5429 10.1401 5.53123 10.7754 5.61642L10.7742 5.61526Z" fill="#0086D6"/>
</svg>
