<svg width="100" height="100" viewBox="0 0 100 100" fill="none" xmlns="http://www.w3.org/2000/svg">
<rect width="100" height="100" fill="#FF26BE"/>
<rect x="3.57129" y="3.57141" width="92.8571" height="92.8571" fill="#2E001F"/>
<path d="M52.045 74.3093L39.8792 49.99L51.498 25.6443C51.7169 25.2761 51.5856 25 51.2353 25H44.187C43.765 25 43.5851 25.2852 43.399 25.5983L35.3438 44.0071L27.0697 25.5523C26.8946 25.1381 26.7195 25.046 26.2817 25.046H18.7519C18.4892 25.046 18.2265 25.3222 18.4892 25.6903L30.0904 49.99L17.9855 74.3554C17.7666 74.6315 17.8104 74.9997 18.2481 74.9997H25.4716C25.8218 74.9997 26.0407 74.8616 26.2596 74.4934L34.7747 55.4206L43.2455 74.4474C43.4644 74.9076 43.6833 74.9997 44.1649 74.9997H51.7823C52.1325 74.9997 52.2638 74.6775 52.045 74.3093Z" fill="#FF26BE"/>
<path fill-rule="evenodd" clip-rule="evenodd" d="M71.8548 37.6089C61.0853 37.6089 54.2997 45.9849 54.2997 56.7081C54.2997 69.2261 61.0004 75.0458 70.5003 74.9997C74.1777 74.9997 78.1151 74.5186 81.7924 72.6777C82.0551 72.5397 82.1426 72.4476 82.1426 72.1715C81.9238 70.4687 81.9238 68.9039 81.9238 67.6613V25.4131C81.9238 25.183 81.8362 25.0449 81.486 25.0449H74.569C74.3501 25.0449 74.1312 25.229 74.1312 25.5051V37.701C73.2557 37.6089 72.7741 37.6089 71.8548 37.6089ZM71.5921 44.4662C72.6428 44.4662 73.5183 44.6503 74.1312 44.9264V67.7074C73.2995 68.0755 72.1612 68.2136 71.1105 68.2136C66.1636 68.2136 62.2235 64.808 62.2235 56.3399C62.2235 48.9304 66.076 44.4662 71.5921 44.4662Z" fill="#FF26BE"/>
</svg>
